<svg width="228" height="228" viewBox="0 0 228 228" xmlns="http://www.w3.org/2000/svg">
    <rect width="228" height="228" rx="43" fill="white"/>
    <path fill-rule="evenodd" clip-rule="evenodd" d="M192.5 28.5H33.5C34.9873 32.1454 36.4873 35.812 38 39.5C38.7992 78.4423 39.4659 117.442 40 156.5C56.9496 185.115 81.283 204.449 113 214.5C145.518 204.587 170.185 184.92 187 155.5C187.166 136.334 187.333 117.167 187.5 98.0009C187.667 78.8339 187.833 59.667 188 40.5C189.798 36.578 191.298 32.578 192.5 28.5ZM187.5 33.5C137.668 32.1689 88.0017 32.1689 38.5 33.5C40.1632 35.4927 41.3299 37.8261 42 40.5L43 154.5C57.4804 177.975 77.3138 195.475 102.5 207C106.694 208.951 111.028 209.951 115.5 210C144.418 199.79 166.918 181.623 183 155.5C183.166 136.5 183.333 117.5 183.5 98.5002C183.667 79.5001 183.833 60.5001 184 41.5C184.892 38.7163 186.058 36.0496 187.5 33.5Z" fill="#0062A3"/>
    <path d="M52.5 41.5001C68.5139 41.1673 84.5139 41.5007 100.5 42.5001C98.2261 44.7128 96.7261 47.3794 96 50.5001C95.3333 95.8334 95.3333 141.167 96 186.5C96.5573 188.615 97.3906 190.615 98.5 192.5C98.1667 192.833 97.8333 193.167 97.5 193.5C78.6278 183.795 63.7944 169.795 53 151.5C52.5 114.835 52.3333 78.1683 52.5 41.5001Z" fill="#0062A3"/>
    <path d="M125.5 42.5C141.658 41.5036 157.991 41.1702 174.5 41.5C174.5 57.8333 174.5 74.1667 174.5 90.5C159.833 90.5 145.167 90.5 130.5 90.5C130.667 76.8293 130.5 63.1626 130 49.5C129.484 46.4531 127.984 44.1198 125.5 42.5Z" fill="#0062A3"/>
    <path d="M105.5 99.5C128.5 99.5 151.5 99.5 174.5 99.5C174.667 116.503 174.5 133.503 174 150.5C162.817 169.696 147.317 183.863 127.5 193C128.46 191.581 129.293 190.081 130 188.5C130.5 167.503 130.667 146.503 130.5 125.5C122.167 125.5 113.833 125.5 105.5 125.5C105.5 116.833 105.5 108.167 105.5 99.5Z" fill="#0062A3"/>
</svg>
