<svg width="188" height="188" viewBox="0 0 188 188" xmlns="http://www.w3.org/2000/svg">
    <path fill-rule="evenodd" clip-rule="evenodd" d="M172.5 0.5H13.5C14.9873 4.14537 16.4873 7.81203 18 11.5C18.7992 50.4423 19.4659 89.4423 20 128.5C36.9496 157.115 61.283 176.449 93 186.5C125.518 176.587 150.185 156.92 167 127.5C167.166 108.334 167.333 89.1673 167.5 70.0009C167.667 50.8339 167.833 31.667 168 12.5C169.798 8.57795 171.298 4.57795 172.5 0.5ZM167.5 5.49999C117.668 4.16887 68.0017 4.16887 18.5 5.49999C20.1632 7.49272 21.3299 9.82606 22 12.5L23 126.5C37.4804 149.975 57.3138 167.475 82.5 179C86.6945 180.951 91.0278 181.951 95.5 182C124.418 171.79 146.918 153.623 163 127.5C163.166 108.5 163.333 89.5001 163.5 70.5002C163.667 51.5001 163.833 32.5001 164 13.5C164.892 10.7163 166.058 8.04958 167.5 5.49999Z" fill="#0062A3"/>
    <path d="M32.5 13.5C48.5139 13.1672 64.5139 13.5006 80.5 14.5C78.2261 16.7127 76.7261 19.3793 76 22.5C75.3333 67.8333 75.3333 113.167 76 158.5C76.5573 160.615 77.3906 162.615 78.5 164.5C78.1667 164.833 77.8333 165.167 77.5 165.5C58.6278 155.795 43.7944 141.795 33 123.5C32.5 86.8348 32.3333 50.1682 32.5 13.5Z" fill="#0062A3"/>
    <path d="M105.5 14.5C121.658 13.5036 137.991 13.1702 154.5 13.5C154.5 29.8333 154.5 46.1667 154.5 62.5C139.833 62.5 125.167 62.5 110.5 62.5C110.667 48.8293 110.5 35.1626 110 21.5C109.484 18.4531 107.984 16.1198 105.5 14.5Z" fill="#0062A3"/>
    <path d="M85.5 71.5C108.5 71.5 131.5 71.5 154.5 71.5C154.667 88.5033 154.5 105.503 154 122.5C142.817 141.696 127.317 155.863 107.5 165C108.46 163.581 109.293 162.081 110 160.5C110.5 139.503 110.667 118.503 110.5 97.5C102.167 97.5 93.8333 97.5 85.5 97.5C85.5 88.8333 85.5 80.1667 85.5 71.5Z" fill="#0062A3"/>
</svg>
